:FULLY-SPECIFIED
:FORCE-ALL-JOINTS-BE-3DOF
:DEGREES
102
root 7.40164 16.6539 -26.7101 4.23731 10.5777 -4.43269
lfemur -27.7874 -5.21277 -9.70921
ltibia 39.805 -0 0
lfoot -18.4173 -2.10017 -0.0488754
ltoes 15.0393 -0 0
rfemur -30.0962 -10.0557 9.25368
rtibia 69.604 -0 0
rfoot 5.22629 15.3629 0.121831
rtoes -17.7197 0 0
lowerback 0.49481 2.12377 1.46639
upperback -1.38185 2.89448 1.88402
thorax -1.6972 1.43862 1.09574
lowerneck -10.3484 -4.90147 2.40142
upperneck -0.950312 -6.79861 0.934727
head 1.38939 -3.36549 -0.395645
lclavicle 0 0 0
lhumerus -46.5365 -7.7053 92.9959
lradius 47.865 -0 0
lwrist 15.2709 0 0
lhand 6.54248 7.46869 -0.000908511
lfingers 0 0 0
lthumb 31.8399 34.7046 -0.00157454
rclavicle 0 0 0
rhumerus -42.8859 0.132326 -73.2369
rradius 50.9705 -0 0
rwrist -0.960787 0 0
rhand -17.4001 -13.5755 0.0696317
rfingers 0 0 0
rthumb 8.84872 -43.3501 0.0692613
103
root 7.43306 16.6661 -26.6889 3.39409 11.1309 -4.24306
lfemur -26.6111 -4.66817 -10.2724
ltibia 39.2435 -0 0
lfoot -17.9949 -3.29647 -0.0735906
ltoes 17.2692 -0 0
rfemur -32.7591 -8.58204 7.4533
rtibia 73.4646 -0 0
rfoot 9.12168 15.6845 0.183796
rtoes -12.6668 0 0
lowerback 1.28945 1.78511 1.25367
upperback -1.04325 2.45694 1.95385
thorax -1.79205 1.22066 1.29561
lowerneck -10.4367 -4.86555 2.3203
upperneck -0.80629 -6.74572 0.884363
head 1.45384 -3.33847 -0.401491
lclavicle 0 0 0
lhumerus -46.2616 -8.44888 93.1068
lradius 47.8974 -0 0
lwrist 15.0211 0 0
lhand 6.74114 7.42139 -0.00136762
lfingers 0 0 0
lthumb 32.0289 34.6185 -0.00237021
rclavicle 0 0 0
rhumerus -42.9295 0.460953 -72.3017
rradius 51.0132 -0 0
rwrist 1.03848 0 0
rhand -18.2901 -14.3842 0.10484
rfingers 0 0 0
rthumb 7.98949 -44.1834 0.104283
104
root 7.45889 16.6792 -26.6707 2.45018 11.7535 -4.04017
lfemur -25.3015 -4.04489 -10.8891
ltibia 38.6148 -0 0
lfoot -17.5216 -4.63617 -0.0907934
ltoes 19.766 -0 0
rfemur -35.7838 -7.0327 5.36528
rtibia 77.7873 -0 0
rfoot 13.4838 16.0487 0.22707
rtoes -7.00907 0 0
lowerback 2.18056 1.40945 1.00997
upperback -0.664861 1.96653 2.02894
thorax -1.89915 0.977004 1.51981
lowerneck -10.5356 -4.82547 2.22939
upperneck -0.645101 -6.68635 0.828134
head 1.52599 -3.3082 -0.408
lclavicle 0 0 0
lhumerus -45.9549 -9.28209 93.227
lradius 47.9336 -0 0
lwrist 14.7415 0 0
lhand 6.96359 7.36843 -0.00168706
lfingers 0 0 0
lthumb 32.2406 34.522 -0.00292383
rclavicle 0 0 0
rhumerus -42.9718 0.829709 -71.2547
rradius 51.0609 -0 0
rwrist 3.2771 0 0
rhand -19.2872 -15.2904 0.129346
rfingers 0 0 0
rthumb 7.02692 -45.117 0.128658
105
root 7.47965 16.6925 -26.6555 1.45884 12.4109 -3.8379
lfemur -23.9343 -3.37535 -11.5207
ltibia 37.9545 -0 0
lfoot -17.0241 -6.04338 -0.0969395
ltoes 22.3884 -0 0
rfemur -39.0101 -5.5263 3.09346
rtibia 82.3275 -0 0
rfoot 18.0655 16.4335 0.242559
rtoes -1.06664 0 0
lowerback 3.11808 1.01902 0.747792
upperback -0.268233 1.45093 2.1043
thorax -2.01265 0.721541 1.75577
lowerneck -10.6395 -4.78355 2.13385
upperneck -0.475886 -6.62382 0.769265
head 1.60177 -3.2764 -0.414796
lclavicle 0 0 0
lhumerus -45.6339 -10.1579 93.3487
lradius 47.9716 -0 0
lwrist 14.4478 0 0
lhand 7.19723 7.3128 -0.00180116
lfingers 0 0 0
lthumb 32.463 34.4207 -0.00312158
rclavicle 0 0 0
rhumerus -43.009 1.21778 -70.1552
rradius 51.111 -0 0
rwrist 5.62835 0 0
rhand -20.3347 -16.2423 0.138101
rfingers 0 0 0
rthumb 6.01563 -46.0978 0.137366
106
root 7.49583 16.7055 -26.6431 0.47324 13.0676 -3.64792
lfemur -22.5835 -2.69514 -12.1322
ltibia 37.2981 -0 0
lfoot -16.5296 -7.44216 -0.0909393
ltoes 24.9951 -0 0
rfemur -42.2671 -4.15825 0.759375
rtibia 86.8405 -0 0
rfoot 22.6199 16.8161 0.227438
rtoes 4.8402 -0 0
lowerback 4.05165 0.635234 0.480911
upperback 0.125273 0.937917 2.17566
thorax -2.12651 0.468075 1.99081
lowerneck -10.7429 -4.74205 2.03881
upperneck -0.307769 -6.5615 0.710941
head 1.67709 -3.24478 -0.421509
lclavicle 0 0 0
lhumerus -45.3157 -11.0291 93.4651
lradius 48.0094 -0 0
lwrist 14.1559 0 0
lhand 7.42947 7.25751 -0.00168976
lfingers 0 0 0
lthumb 32.684 34.32 -0.00292853
rclavicle 0 0 0
rhumerus -43.0387 1.60417 -69.0624
rradius 51.1609 -0 0
rwrist 7.96552 0 0
rhand -21.3759 -17.1886 0.129554
rfingers 0 0 0
rthumb 5.01039 -47.0728 0.128865
107
root 7.50793 16.7175 -26.6333 -0.453391 13.6876 -3.47954
lfemur -21.3214 -2.04299 -12.6918
ltibia 36.6813 -0 0
lfoot -16.0651 -8.75658 -0.0743001
ltoes 27.4448 -0 0
rfemur -45.372 -2.99589 -1.49869
rtibia 91.0817 -0 0
rfoot 26.8997 17.1735 0.185579
rtoes 10.3912 -0 0
lowerback 4.93056 0.27858 0.224452
upperback 0.494451 0.455369 2.23949
thorax -2.23446 0.230305 2.21213
lowerneck -10.8401 -4.7032 1.94943
upperneck -0.149857 -6.50277 0.656304
head 1.74786 -3.21506 -0.427779
lclavicle 0 0 0
lhumerus -45.0175 -11.8484 93.5703
lradius 48.0449 -0 0
lwrist 13.8816 0 0
lhand 7.64772 7.20554 -0.00138079
lfingers 0 0 0
lthumb 32.8917 34.2254 -0.00239305
rclavicle 0 0 0
rhumerus -43.0598 1.96774 -68.0353
rradius 51.2077 -0 0
rwrist 10.1619 0 0
rhand -22.3542 -18.0777 0.105851
rfingers 0 0 0
rthumb 4.06597 -47.9887 0.105288
108
root 7.51647 16.728 -26.6259 -1.26767 14.2342 -3.33984
lfemur -20.2187 -1.46025 -13.1711
ltibia 36.1396 -0 0
lfoot -15.6577 -9.91077 -0.0509045
ltoes 29.5961 -0 0
rfemur -48.1326 -2.0777 -3.52956
rtibia 94.8063 -0 0
rfoot 30.6579 17.484 0.126909
rtoes 15.2661 -0 0
lowerback 5.70373 -0.0313567 -0.00525814
upperback 0.818211 0.0312609 2.29299
thorax -2.33002 0.02184 2.40688
lowerneck -10.9256 -4.66921 1.87088
upperneck -0.0112402 -6.45108 0.608462
head 1.81001 -3.18896 -0.433256
lclavicle 0 0 0
lhumerus -44.7561 -12.5684 93.6593
lradius 48.0761 -0 0
lwrist 13.6406 0 0
lhand 7.83939 7.15991 -0.00094621
lfingers 0 0 0
lthumb 33.0741 34.1423 -0.00163987
rclavicle 0 0 0
rhumerus -43.073 2.28729 -67.1333
rradius 51.2489 -0 0
rwrist 12.0908 0 0
rhand -23.2129 -18.858 0.0725223
rfingers 0 0 0
rthumb 3.23698 -48.7927 0.0721366
109
root 7.52195 16.7362 -26.6209 -1.91597 14.6704 -3.23418
lfemur -19.3451 -0.990111 -13.5443
ltibia 35.7086 -0 0
lfoot -15.3339 -10.8289 -0.0264308
ltoes 31.3078 -0 0
rfemur -50.3502 -1.41798 -5.17481
rtibia 97.7697 -0 0
rfoot 33.6478 17.7279 0.0657664
rtoes 19.1447 -0 0
lowerback 6.31976 -0.275715 -0.190997
upperback 1.07552 -0.30638 2.33384
thorax -2.40655 -0.143786 2.56206
lowerneck -10.9935 -4.64226 1.80836
upperneck 0.0990053 -6.40986 0.570491
head 1.85946 -3.16818 -0.437592
lclavicle 0 0 0
lhumerus -44.5484 -13.1414 93.7279
lradius 48.1009 -0 0
lwrist 13.4489 0 0
lhand 7.99188 7.1236 -0.000491403
lfingers 0 0 0
lthumb 33.2192 34.0761 -0.000851648
rclavicle 0 0 0
rhumerus -43.0798 2.54166 -66.4155
rradius 51.2816 -0 0
rwrist 13.6254 0 0
rhand -23.8957 -19.4784 0.0376561
rfingers 0 0 0
rthumb 2.57779 -49.432 0.0374559
110
root 7.52487 16.7416 -26.618 -2.34447 14.9592 -3.16708
lfemur -18.7697 -0.676466 -13.7869
ltibia 35.4239 -0 0
lfoot -15.1202 -11.4353 -0.00742042
ltoes 32.4384 -0 0
rfemur -51.8247 -1.01742 -6.27485
rtibia 99.7271 -0 0
rfoot 35.6226 17.8871 0.0184361
rtoes 21.7067 -0 0
lowerback 6.72713 -0.436025 -0.315125
upperback 1.24536 -0.529507 2.35999
thorax -2.45735 -0.253076 2.66469
lowerneck -11.0385 -4.62449 1.76704
upperneck 0.171808 -6.3826 0.545455
head 1.89212 -3.15446 -0.440447
lclavicle 0 0 0
lhumerus -44.4113 -13.5201 93.7721
lradius 48.1173 -0 0
lwrist 13.3223 0 0
lhand 8.09262 7.09962 -0.000137984
lfingers 0 0 0
lthumb 33.3151 34.0325 -0.00023914
rclavicle 0 0 0
rhumerus -43.0826 2.70972 -65.9413
rradius 51.3032 -0 0
rwrist 14.6391 0 0
rhand -24.3466 -19.888 0.0105721
rfingers 0 0 0
rthumb 2.1426 -49.854 0.0105159
111
root 7.63166 16.8097 -26.5853 -2.49926 15.0636 -3.14338
lfemur -18.5623 -0.562609 -13.8737
ltibia 35.3211 0 0
lfoot -15.0431 -11.6543 0
ltoes 32.8467 0 0
rfemur -52.359 -0.879757 -6.67453
rtibia 100.434 0 0
rfoot 36.3357 17.9442 0
rtoes 22.6319 0 0
lowerback 6.87432 -0.493697 -0.36023
upperback 1.30667 -0.6101 2.36927
thorax -2.47574 -0.29252 2.70178
lowerneck -11.0547 -4.61808 1.75212
upperneck 0.198094 -6.37275 0.536423
head 1.90391 -3.1495 -0.441476
lclavicle 2.56432e-14 1.39149e-15 0
lhumerus -44.3618 -13.6569 93.7879
lradius 48.1232 0 0
lwrist 13.2766 0 0
lhand 8.12899 7.09096 0
lfingers 7.12502 0 0
lthumb 33.3497 34.0167 0
rclavicle 2.56432e-14 1.39149e-15 0
rhumerus -43.0833 2.77041 -65.7701
rradius 51.311 0 0
rwrist 15.0052 0 0
rhand -24.5093 -20.0358 0
rfingers 7.12502 0 0
rthumb 1.9855 -50.0064 0
